# xmcd CD database file
#
# Track frame offsets:
#	150
#	22154
#	41194
#	56266
#	72488
#	92532
#	110487
#	134373
#	149663
#	164003
#	180795
#	200660
#	217194
#	239271
#	258031
#	276768
#	295876
#	319579
#	333654
#
# Disc length: 4664 seconds
#
# Revision: 0
# Processed by: cddbd v1.5.2PL0 Copyright (c) Steve Scherf et al.
# Submitted via: CDex 1.51
#
DISCID=2c123613
DTITLE=Various Artist - ZMPP-15-DISC-2
DYEAR=1900
DGENRE=Blues
TTITLE0=Paloma Faith - Just Be
TTITLE1=Pink Ft Nate Ruess - Just Give Me A Reason
TTITLE2=One Direction - Kiss You
TTITLE3=Lawson - Learn To Love Again
TTITLE4=Passenger - Let Her go
TTITLE5=McFly - Love Is Easy
TTITLE6=Justin Timberlake - Mirrors
TTITLE7=Fall Out Boy - My Songs Know What You Did In The Dark
TTITLE8=Gabrielle Aplin - Please Don't Say You Love Me
TTITLE9=Bastille - Pompeii
TTITLE10=Rita Ora - Radioactive
TTITLE11=Bridgit Mendler - Ready Or Not
TTITLE12=Will.i.am Ft Britney Spears - Scream And Shout
TTITLE13=Rihanna Ft Mikky Ekko - Stay
TTITLE14=Macklemore Ft Ryan Lewis and Wanz - Thrift Shop
TTITLE15=Pink - Try
TTITLE16=Rudimental Ft Ella Eyre - Waiting All Night
TTITLE17=Loverble Rogues - What A Night
TTITLE18=Saturdays The Ft Sean Paul - What About Us
EXTD=
EXTT0=
EXTT1=
EXTT2=
EXTT3=
EXTT4=
EXTT5=
EXTT6=
EXTT7=
EXTT8=
EXTT9=
EXTT10=
EXTT11=
EXTT12=
EXTT13=
EXTT14=
EXTT15=
EXTT16=
EXTT17=
EXTT18=
PLAYORDER=
